# xmcd
#
# Track frame offsets: 
#        150
#        14573
#        24372
#        31642
#        44226
#        67496
#        81423
#        97310
#        117374
#        129531
#        143557
#        159370
#        175380
#        195194
#        204563
#        215491
#        229217
#        249190
#        254236
#        266279
#        279355
#
# Disc length: 4002 seconds
#
# Revision: 0
# Processed by: cddbd v1.5.2PL0 Copyright (c) Steve Scherf et al.
# Submitted via: ExactAudioCopy v1.1
#
DISCID=370fa015
DTITLE=Raymond Van Het Groenewoud - Archivaris - CD 1
DYEAR=2018
DGENRE=Pop
TTITLE0=Maria, Maria, Ik Hou Van Jou
TTITLE1=Nee, Ik Wil Niet Sterven Vannacht
TTITLE2=Lieve Sonja
TTITLE3=Je Moest Eens Weten Hoe Gelukkig Ik Was
TTITLE4=Bierfeesten (Als Ik Dit Maar Heb)
TTITLE5=Rock 'n Roll
TTITLE6=Mier Te Zijn
TTITLE7=Meisjes
TTITLE8=Bij Elkaar
TTITLE9=Crazy Pub
TTITLE10=Feest
TTITLE11=Zjoske, Schone Meid
TTITLE12=Daniëlle
TTITLE13=Daddeemelee (Live)
TTITLE14=Waar Ik Niet Tegen Kan (Live)
TTITLE15=Vlaanderen Boven (Live)
TTITLE16='k Heb Je Graag (Live)
TTITLE17=Mama Moet Komen
TTITLE18=Het Verschil Met Mijn Vriend Jan
TTITLE19=ChaChaCha
TTITLE20=J'Veux De L'Amour
EXTD=
EXTT0=
EXTT1=
EXTT2=
EXTT3=
EXTT4=
EXTT5=
EXTT6=
EXTT7=
EXTT8=
EXTT9=
EXTT10=
EXTT11=
EXTT12=
EXTT13=
EXTT14=
EXTT15=
EXTT16=
EXTT17=
EXTT18=
EXTT19=
EXTT20=
PLAYORDER=
